<?xml version="1.0" encoding="UTF-8" standalone="no"?>
<svg
   id="Layer_1"
   data-name="Layer 1"
   viewBox="0 0 100 100"
   version="1.1"
   xmlns:xlink="http://www.w3.org/1999/xlink"
   xmlns="http://www.w3.org/2000/svg"
   xmlns:svg="http://www.w3.org/2000/svg">
  <defs
     id="defs4">
    <linearGradient
       id="linearGradient41746">
      <stop
         style="stop-color:#ffffff;stop-opacity:1;"
         offset="0"
         id="stop41744" />
    </linearGradient>
    <linearGradient
       id="linearGradient39722">
      <stop
         style="stop-color:#000000;stop-opacity:1;"
         offset="0"
         id="stop39718" />
      <stop
         style="stop-color:#000000;stop-opacity:0;"
         offset="1"
         id="stop39720" />
    </linearGradient>
    <style
       id="style2">.cls-1{opacity:0.6;}.cls-2{fill:#d31c5b;}.cls-3{fill:#fff;}</style>
    <linearGradient
       xlink:href="#linearGradient39722"
       id="linearGradient39724"
       x1="36.083555"
       y1="76.093425"
       x2="100.03838"
       y2="76.093425"
       gradientUnits="userSpaceOnUse" />
  </defs>
  <path
     class="cls-1"
     d="M 90.281787,52.991484 A 45.140893,45.140893 0 1 1 45.140893,7.8505901 45.140893,45.140893 0 0 1 90.281787,52.991484 Z"
     id="path6"
     style="stroke-width:1" />
  <circle
     class="cls-2"
     cx="45.140892"
     cy="45.140892"
     r="45.140892"
     id="circle8"
     style="fill:#93a7ac;fill-opacity:1;stroke-width:1" />
  <path
     class="cls-3"
     d="M 45.140893,5.4169072 A 39.723986,39.723986 0 1 0 84.864879,45.140893 39.723986,39.723986 0 0 0 45.140893,5.4169072 Z m 23.551771,57.3878138 -5.721117,-17.663828 -10.549232,3.454259 0.206079,0.647674 5.45616,16.81989 v 0 l 0.04907,0.166825 -9.24407,7.134224 L 41.971222,52.010159 31.51031,55.40554 37.172549,72.941796 26.711637,76.356802 21.098465,58.879426 17.604952,59.998135 14.219385,49.547037 17.663832,48.379262 12.031033,30.803753 22.462505,27.477066 28.183623,45.140893 38.713226,41.745513 38.124433,39.910437 33.050989,24.21907 v 0 l -0.05888,-0.166824 9.253884,-7.134225 6.869265,21.343793 10.470725,-3.375754 -5.613171,-17.555883 10.451097,-3.405192 5.613173,17.477375 3.493512,-1.128521 3.385567,10.500164 -3.483699,1.157961 5.672051,17.585323 z"
     id="path10"
     style="stroke-width:1;opacity:0.80097879" />
  <text
     xml:space="preserve"
     style="font-size:40px;line-height:1.25;font-family:'Carter One';-inkscape-font-specification:'Carter One, Normal';font-weight:normal;font-style:normal;font-stretch:normal;font-variant:normal;font-variant-ligatures:normal;font-variant-caps:normal;font-variant-numeric:normal;font-variant-east-asian:normal"
     x="72.0504"
     y="80.068726"
     id="text1777"><tspan
       id="tspan1775"
       x="72.0504"
       y="80.068726" /></text>
  <g
     aria-label="++"
     transform="scale(0.99815829,1.0018451)"
     id="text20805"
     style="font-size:82.5039px;line-height:1.25;font-family:serif;-inkscape-font-specification:serif;letter-spacing:-3.63533px;stroke:#000000;stroke-width:3">
    <path
       d="m 40.062531,82.971623 q -2.05454,0.04029 -3.62566,0.04029 -1.530834,0 -2.457391,0 -2.417107,0 -3.62566,-0.201426 -1.168268,-0.241711 -1.168268,-0.926557 0,-0.362566 0.201426,-1.490549 0.24171,-1.168268 0.523706,-2.578247 0.322281,-1.450264 0.604277,-2.900528 0.322281,-1.490549 0.523706,-2.497676 0.08057,-0.483422 0.604277,-0.886273 0.563991,-0.402851 1.450264,-0.443136 l 8.097306,-0.120855 0.08057,-0.845988 q 0.201426,-2.739387 0.281996,-4.713357 0.08057,-1.97397 0.241711,-3.222809 0.201425,-1.248838 0.604276,-1.812829 0.402851,-0.604277 1.248839,-0.604277 0.08057,0 0.16114,0.04028 0.120855,0 0.241711,0 0.24171,0 0.725132,0 0.523706,-0.04028 1.168268,-0.04028 0.644561,-0.04028 1.409978,-0.04028 0.765417,-0.04029 1.490549,-0.04029 l 3.827085,-0.120855 q 0.563992,0.16114 0.845988,0.443136 0.281995,0.24171 0.281995,0.966842 0,0.08057 0,0.120856 0,0.04029 -0.04028,0.281995 0,0.241711 -0.04028,0.765417 -0.04029,0.523707 -0.120855,1.571119 -0.08057,1.047413 -0.241711,2.779673 -0.120855,1.691974 -0.322281,4.270221 l 0.684847,-0.04028 q 1.490549,-0.04029 2.900528,-0.08057 1.450264,-0.04028 2.618532,-0.04028 1.208553,-0.04028 2.05454,-0.04028 0.886273,-0.04028 1.248839,-0.04028 0.32228,0 0.725132,0.24171 0.402851,0.241711 0.402851,0.926558 -0.04029,0.08057 -0.201426,1.571119 -0.16114,1.490549 -0.443136,4.068796 l -0.443136,3.907655 q -0.241711,0.563991 -0.483422,0.845987 -0.201425,0.241711 -0.644561,0.362566 -0.443136,0.120855 -1.289124,0.161141 -0.805702,0 -2.215681,0.04028 l -5.881625,0.120855 -0.523707,5.881626 q -0.120855,1.530834 -0.32228,2.537961 -0.161141,0.966843 -0.402851,1.530834 -0.241711,0.563992 -0.604277,0.805702 -0.322281,0.201426 -0.765417,0.201426 -0.684847,0 -1.853115,0 -1.168268,-0.04028 -2.497677,-0.08057 -1.289123,-0.04028 -2.578246,-0.04028 -1.289124,-0.04029 -2.175396,-0.04029 -0.483422,-0.08057 -0.805702,-0.483422 -0.281996,-0.402851 -0.281996,-1.208553 V 91.63292 Z"
       style="font-family:'Carter One';-inkscape-font-specification:'Carter One, Normal';fill:#ffffff"
       id="path1149" />
    <path
       d="m 75.14119,82.971623 q -2.05454,0.04029 -3.62566,0.04029 -1.530834,0 -2.457391,0 -2.417106,0 -3.62566,-0.201426 -1.168268,-0.241711 -1.168268,-0.926557 0,-0.362566 0.201426,-1.490549 0.24171,-1.168268 0.523706,-2.578247 0.322281,-1.450264 0.604277,-2.900528 0.322281,-1.490549 0.523706,-2.497676 0.08057,-0.483422 0.604277,-0.886273 0.563991,-0.402851 1.450264,-0.443136 l 8.097306,-0.120855 0.08057,-0.845988 q 0.201426,-2.739387 0.281996,-4.713357 0.08057,-1.97397 0.241711,-3.222809 0.201425,-1.248838 0.604276,-1.812829 0.402851,-0.604277 1.248839,-0.604277 0.08057,0 0.16114,0.04028 0.120855,0 0.241711,0 0.24171,0 0.725132,0 0.523706,-0.04028 1.168268,-0.04028 0.644561,-0.04028 1.409978,-0.04028 0.765417,-0.04029 1.490549,-0.04029 l 3.827085,-0.120855 q 0.563992,0.16114 0.845988,0.443136 0.281995,0.24171 0.281995,0.966842 0,0.08057 0,0.120856 0,0.04029 -0.04028,0.281995 0,0.241711 -0.04028,0.765417 -0.04029,0.523707 -0.120855,1.571119 -0.08057,1.047413 -0.241711,2.779673 -0.120855,1.691974 -0.322281,4.270221 l 0.684847,-0.04028 q 1.490549,-0.04029 2.900528,-0.08057 1.450264,-0.04028 2.618532,-0.04028 1.208553,-0.04028 2.05454,-0.04028 0.886273,-0.04028 1.248839,-0.04028 0.32228,0 0.725132,0.24171 0.402851,0.241711 0.402851,0.926558 -0.04028,0.08057 -0.201426,1.571119 -0.16114,1.490549 -0.443136,4.068796 l -0.443136,3.907655 q -0.241711,0.563991 -0.483422,0.845987 -0.201425,0.241711 -0.644561,0.362566 -0.443136,0.120855 -1.289124,0.161141 -0.805702,0 -2.215681,0.04028 l -5.881625,0.120855 -0.523707,5.881626 q -0.120855,1.530834 -0.32228,2.537961 -0.161141,0.966843 -0.402851,1.530834 -0.241711,0.563992 -0.604277,0.805702 -0.322281,0.201426 -0.765417,0.201426 -0.684847,0 -1.853115,0 -1.168268,-0.04028 -2.497677,-0.08057 -1.289123,-0.04028 -2.578246,-0.04028 -1.289124,-0.04029 -2.175396,-0.04029 -0.483421,-0.08057 -0.805702,-0.483422 -0.281996,-0.402851 -0.281996,-1.208553 V 91.63292 Z"
       style="font-family:'Carter One';-inkscape-font-specification:'Carter One, Normal';fill:#ffffff"
       id="path1151" />
  </g>
</svg>
